<?xml version="1.0" encoding="UTF-8"?>
<svg xmlns="http://www.w3.org/2000/svg" viewBox="0 0 113.39 113.39">
  <defs>
    <style>.cls-1{fill:#11aec0;}</style>
  </defs>
  <g id="Calque_2" data-name="Calque 2">
    <g id="Layer_1" data-name="Layer 1">
      <path class="cls-1" d="M35.12,95.84H92.17a14.32,14.32,0,0,0,10.13-4.2l6.89-6.89a14.3,14.3,0,0,0,4.2-10.13l0-41.76L100.86,20.38l0,63H35.12Z"></path>
      <path class="cls-1" d="M17.58,35.14v57a14.3,14.3,0,0,0,4.2,10.13l6.89,6.89a14.3,14.3,0,0,0,10.13,4.2l41.83-.08,12.49-12.49-63,.07V35.14Z"></path>
      <path class="cls-1" d="M78.29,17.6h-57a14.32,14.32,0,0,0-10.13,4.2L4.23,28.68A14.34,14.34,0,0,0,0,38.82L0,80.55,12.49,93l0-62.95H78.29Z"></path>
      <path class="cls-1" d="M95.83,78.29v-57a14.38,14.38,0,0,0-4.19-10.14L84.75,4.25A14.33,14.33,0,0,0,74.61.05L32.91,0,20.42,12.49l62.92,0V78.29Z"></path>
      <polyline class="cls-1" points="65.79 95.84 67.59 95.84 78.28 95.84"></polyline>
    </g>
  </g>
</svg>
